<svg id="Layer_1" data-name="Layer 1" xmlns="http://www.w3.org/2000/svg" viewBox="0 0 491.29 402.42"><defs><style>.cls-1{fill:#21274f;}.cls-2{fill:#22a959;}</style></defs><path class="cls-1" d="M201.43,445A318.36,318.36,0,0,1,159,448.16q-30.09-1.26-48.47-12.51,20.28-1.26,33.27-6.18,20.58-11.72,45.61-3.17,28.52,7.6,43.24,19.33A258.9,258.9,0,0,0,201.43,445ZM441.55,319.71Q411,417,393.56,498.53q-8.87,7.13-41.18,4.28-20.43-1.74-27.09-8.87-18.37-9.66-55.75-10.14-28.2.63-61.46-24.87,113.1,5.38,119.27-17.1-10.61-19.17-43.08-16.16-32.31,6.49-89.33-21.54,42.76,1.59,84.74-20.43A229.48,229.48,0,0,1,332,369.12q19.79-4.9,14.89-24.39-4.29-18.84-62.73-2.69Q236.9,356.61,201,329.37q-16.64-13.78-44.67-10,49.43-20,76-12.51,31.83,10.61,61.45-4.44,20.75-15.68-1.58-36.27-9-11.4-35.48.79-32.79,9-92.18-22.17,45,3.32,76-17.11a155.16,155.16,0,0,1,63.84-23.6q32.63-5.24,51.95,4.43,14.57,11.56,33.42-12.51,13.31-18.06-22.33-32-43.24-12-63-.64Q264.15,178,239.45,148q33.42-2.38,67.47-25,29-24.08,106.76-21.54C488.83,97.75,451.88,224.18,441.55,319.71ZM184.8,188.87q32.94-14.25,55.91-10.61,36.75,11.25,64.94,4.44-17.89,13-63.35,16.79Q216.78,201.23,184.8,188.87Z" transform="translate(-110.51 -101.2)"/><path class="cls-1" d="M380.38,142.15l179.72-31.4,41.71,31.4V218h-133v75.83l68.5-31.41,41.71,31.41v75.83H468.85v134H380.38l-41.71-31.41Z" transform="translate(-110.51 -101.2)"/><path class="cls-2" d="M338.67,110.75H560.1v75.83h-133v75.83H537.35v75.83H427.14v134H338.67Z" transform="translate(-110.51 -101.2)"/></svg>